<?xml version="1.0" encoding="UTF-8" standalone="no"?><!DOCTYPE svg PUBLIC "-//W3C//DTD SVG 1.1//EN" "http://www.w3.org/Graphics/SVG/1.1/DTD/svg11.dtd"><svg width="100%" height="100%" viewBox="0 0 1836 1925" version="1.1" xmlns="http://www.w3.org/2000/svg" xmlns:xlink="http://www.w3.org/1999/xlink" xml:space="preserve" xmlns:serif="http://www.serif.com/" style="fill-rule:evenodd;clip-rule:evenodd;stroke-linecap:round;stroke-linejoin:round;stroke-miterlimit:1.5;"><ellipse cx="923.385" cy="1024.28" rx="858.677" ry="858.771" style="fill:#848e95;"/><path d="M1433.49,639.657c-0,-13.807 -11.193,-25 -25,-25c-113.682,0 -581.195,0 -694.876,0c-13.807,0 -25,11.193 -25,25c0,133.724 0,763.435 0,897.159c0,13.807 11.193,25 25,25c113.681,-0 581.194,-0 694.876,-0c13.807,-0 25,-11.193 25,-25c-0,-133.724 -0,-763.435 -0,-897.159Z" style="fill:#052032;stroke:#000;stroke-width:2.08px;"/><path d="M886.783,966.571l409.462,0.843" style="fill:none;stroke:#fff;stroke-width:50px;"/><path d="M887.506,1114.34l409.462,0.842" style="fill:none;stroke:#fff;stroke-width:50px;"/><path d="M883.482,1270.68l409.463,0.843" style="fill:none;stroke:#fff;stroke-width:50px;"/><path d="M1175.07,511.922c-0,-13.807 -11.193,-25 -25,-25c-113.681,-0 -581.194,-0 -694.876,-0c-13.807,-0 -25,11.193 -25,25c0,133.724 0,763.435 0,897.159c0,13.807 11.193,25 25,25c113.682,-0 581.195,-0 694.876,-0c13.807,-0 25,-11.193 25,-25c-0,-133.724 -0,-763.435 -0,-897.159Z" style="fill:#fff;stroke:#fff;stroke-width:2.08px;"/><path d="M448.034,509.75l0.548,905.778" style="fill:none;stroke:#ff6000;stroke-width:50px;"/><path d="M1157.47,509.806l0.548,905.778" style="fill:none;stroke:#ff6000;stroke-width:50px;"/><path d="M707.769,1546.23l709.208,0.219" style="fill:none;stroke:#ff6000;stroke-width:50px;"/><path d="M592.536,816.055l409.463,0.843" style="fill:none;stroke:#052036;stroke-width:50px;"/><path d="M593.259,963.823l409.463,0.842" style="fill:none;stroke:#ff6000;stroke-width:50px;"/><path d="M589.236,1120.16l409.462,0.843" style="fill:none;stroke:#052036;stroke-width:50px;"/><path d="M708.097,635.47l-0.512,911.502" style="fill:none;stroke:#ff6000;stroke-width:50px;"/></svg>